<?xml version="1.0" standalone="no"?>
<!DOCTYPE svg PUBLIC "-//W3C//DTD SVG 20010904//EN"
 "http://www.w3.org/TR/2001/REC-SVG-20010904/DTD/svg10.dtd">
<svg version="1.0" xmlns="http://www.w3.org/2000/svg"
 width="512.000000pt" height="512.000000pt" viewBox="0 0 512.000000 512.000000"
 preserveAspectRatio="xMidYMid meet">

<g transform="translate(0.000000,512.000000) scale(0.100000,-0.100000)"
fill="white"  stroke="white">
<path d="M1075 4264 c-167 -11 -260 -39 -367 -110 -89 -59 -160 -141 -209
-239 -54 -109 -68 -196 -69 -426 0 -174 1 -189 23 -228 12 -24 42 -57 66 -75
39 -28 49 -31 120 -31 66 0 83 4 114 25 21 14 50 42 64 64 27 38 28 44 35 228
4 104 12 207 18 228 11 42 54 91 104 118 29 16 134 17 1586 17 l1555 0 42 -24
c69 -40 93 -84 103 -193 12 -121 12 -1995 0 -2116 -10 -109 -34 -153 -103
-193 l-42 -24 -595 -5 -595 -5 -47 -28 c-121 -71 -139 -227 -38 -328 72 -72
67 -72 720 -66 602 5 641 8 757 58 117 50 235 161 298 280 74 142 70 58 70
1369 0 1311 4 1227 -70 1369 -86 163 -236 277 -420 319 -62 14 -239 16 -1570
17 -825 1 -1522 0 -1550 -1z"/>
<path d="M590 2981 c-105 -34 -160 -106 -160 -211 0 -61 25 -115 74 -157 46
-41 80 -50 213 -57 704 -35 1292 -568 1398 -1266 8 -52 15 -126 15 -163 0
-106 16 -154 70 -208 105 -105 268 -80 334 52 30 60 33 124 15 287 -63 582
-366 1085 -849 1409 -284 190 -619 299 -980 317 -58 3 -116 1 -130 -3z"/>
<path d="M590 2341 c-105 -34 -160 -106 -160 -211 0 -119 96 -210 222 -210
235 0 483 -118 639 -304 116 -137 183 -306 198 -499 10 -121 27 -163 83 -212
105 -89 260 -57 322 66 31 63 34 132 11 279 -82 546 -492 972 -1031 1073 -101
19 -252 29 -284 18z"/>
<path d="M590 1701 c-105 -33 -160 -106 -160 -211 0 -114 96 -210 210 -210
104 0 209 -96 210 -193 1 -145 128 -258 259 -228 101 22 171 111 171 218 0
174 -94 368 -236 485 -59 49 -165 103 -237 122 -69 18 -186 27 -217 17z"/>
</g>
</svg>
