<svg xmlns="http://www.w3.org/2000/svg" width="500" height="500" x="0" y="0" viewBox="0 0 80 24" xml:space="preserve"><style>.st0{fill:#fff}</style><path class="st0" d="M12.2 0C5.5 0 0 5.4 0 12s5.5 12 12.2 12c6.7 0 12.2-5.4 12.2-12S18.9 0 12.2 0zm0 19.8c-4.4 0-7.9-3.5-7.9-7.8s3.5-7.8 7.9-7.8 7.9 3.5 7.9 7.8-3.6 7.8-7.9 7.8z"/><path class="st0" d="M12.2 5.4c-3.7 0-6.7 3-6.7 6.6 0 3.6 3 6.6 6.7 6.6s6.7-3 6.7-6.6c0-3.6-3-6.6-6.7-6.6zM9.7 15.5v-7L16 12l-6.3 3.5zM37.4 9.6c-.6 2.9-1 6.3-1.2 7.8H36c-.2-1.5-.6-4.9-1.2-7.8l-1.5-7h-4.5v18.9h2.8V6l.3 1.5 2.9 14.1h2.8l2.8-14.1.2-1.5v15.5h2.8V2.7h-4.6c.1 0-1.4 6.9-1.4 6.9zM51 18.7c-.3.5-.8.9-1.4.9-.6 0-.9-.5-.9-1.7V7.8h-3.2V18c0 2.5.9 3.7 2.8 3.7 1.3 0 2.3-.6 3.1-1.9h.1l.3 1.7h2.5V7.8H51v10.9zm9.4-5.5c-1-.7-1.7-1.2-1.7-2.3 0-.8.4-1.2 1.2-1.2.9 0 1.2.6 1.2 2.7l2.7-.1c.2-3.3-.9-4.7-3.9-4.7-2.7 0-4.1 1.2-4.1 3.6 0 2.2 1.1 3.2 2.9 4.6 1.6 1.2 2.5 1.8 2.5 2.8 0 .7-.5 1.2-1.3 1.2-1 0-1.5-.9-1.4-2.4h-2.7c-.4 2.9.8 4.5 3.9 4.5 2.8 0 4.2-1.2 4.2-3.7.2-2.3-1-3.2-3.5-5zm8.5-5.4h-3.1v13.8h3.1V7.8zm-1.5-5.5c-1.2 0-1.7.4-1.7 1.9s.6 1.9 1.7 1.9c1.2 0 1.7-.4 1.7-1.9 0-1.4-.5-1.9-1.7-1.9zm11.8 14.3l-2.8-.1c0 2.4-.3 3.2-1.2 3.2-.9 0-1.1-.9-1.1-3.7v-2.7c0-2.8.2-3.6 1.1-3.6.9 0 1.1.8 1.1 3.4l2.8-.2c.2-2.1-.1-3.6-.9-4.4-.6-.6-1.6-.9-2.9-.9-3.1 0-4.4 1.6-4.4 6.2v1.9c0 4.7 1.1 6.2 4.3 6.2 1.3 0 2.3-.3 2.9-.9.8-.9 1.1-2.3 1.1-4.4z"/></svg>
